<mxfile host="app.diagrams.net" agent="Mozilla/5.0 (X11; Linux x86_64) AppleWebKit/537.36 (KHTML, like Gecko) Chrome/136.0.0.0 Safari/537.36" version="27.0.5">
  <diagram name="Page-1" id="5cKjQfaWxu4M1fZnB9D6">
    <mxGraphModel dx="1424" dy="770" grid="1" gridSize="10" guides="1" tooltips="1" connect="1" arrows="1" fold="1" page="1" pageScale="1" pageWidth="850" pageHeight="1100" math="0" shadow="0">
      <root>
        <mxCell id="0" />
        <mxCell id="1" parent="0" />
        <mxCell id="pyAssOhsW1V1CbU0fwzd-3" value="" style="whiteSpace=wrap;html=1;shape=mxgraph.basic.octagon2;align=center;verticalAlign=middle;dx=15;" parent="1" vertex="1">
          <mxGeometry x="280" y="280" width="280" height="280" as="geometry" />
        </mxCell>
        <mxCell id="pyAssOhsW1V1CbU0fwzd-4" value="Config" style="rounded=0;whiteSpace=wrap;html=1;" parent="1" vertex="1">
          <mxGeometry x="360" y="500" width="120" height="30" as="geometry" />
        </mxCell>
        <mxCell id="pyAssOhsW1V1CbU0fwzd-5" value="Core" style="rounded=0;whiteSpace=wrap;html=1;" parent="1" vertex="1">
          <mxGeometry x="360" y="460" width="120" height="30" as="geometry" />
        </mxCell>
        <mxCell id="pyAssOhsW1V1CbU0fwzd-6" value="Use-case" style="rounded=0;whiteSpace=wrap;html=1;" parent="1" vertex="1">
          <mxGeometry x="360" y="390" width="120" height="60" as="geometry" />
        </mxCell>
        <mxCell id="pyAssOhsW1V1CbU0fwzd-7" value="Domain i.e. model, p&lt;span style=&quot;background-color: transparent; color: light-dark(rgb(0, 0, 0), rgb(255, 255, 255));&quot;&gt;ort -and executor interfaces&lt;/span&gt;" style="rounded=0;whiteSpace=wrap;html=1;" parent="1" vertex="1">
          <mxGeometry x="360" y="310" width="120" height="50" as="geometry" />
        </mxCell>
        <mxCell id="pyAssOhsW1V1CbU0fwzd-2" value="" style="endArrow=block;dashed=1;endFill=0;endSize=12;html=1;rounded=0;entryX=0;entryY=0.5;entryDx=0;entryDy=0;" parent="1" source="pyAssOhsW1V1CbU0fwzd-13" target="pyAssOhsW1V1CbU0fwzd-8" edge="1">
          <mxGeometry width="160" relative="1" as="geometry">
            <mxPoint x="240" y="430" as="sourcePoint" />
            <mxPoint x="210" y="480" as="targetPoint" />
          </mxGeometry>
        </mxCell>
        <mxCell id="pyAssOhsW1V1CbU0fwzd-8" value="" style="rounded=0;whiteSpace=wrap;html=1;" parent="1" vertex="1">
          <mxGeometry x="270" y="380" width="20" height="80" as="geometry" />
        </mxCell>
        <mxCell id="pyAssOhsW1V1CbU0fwzd-10" value="" style="endArrow=block;dashed=1;endFill=0;endSize=12;html=1;rounded=0;entryX=1;entryY=0.5;entryDx=0;entryDy=0;exitX=0;exitY=0.5;exitDx=0;exitDy=0;" parent="1" source="pyAssOhsW1V1CbU0fwzd-14" target="pyAssOhsW1V1CbU0fwzd-11" edge="1">
          <mxGeometry width="160" relative="1" as="geometry">
            <mxPoint x="600" y="430" as="sourcePoint" />
            <mxPoint x="400" y="480" as="targetPoint" />
          </mxGeometry>
        </mxCell>
        <mxCell id="pyAssOhsW1V1CbU0fwzd-11" value="" style="rounded=0;whiteSpace=wrap;html=1;" parent="1" vertex="1">
          <mxGeometry x="550" y="380" width="20" height="80" as="geometry" />
        </mxCell>
        <mxCell id="pyAssOhsW1V1CbU0fwzd-13" value="&lt;div&gt;Apache&lt;/div&gt;&lt;div&gt;Kafka&lt;/div&gt;&lt;div&gt;&lt;div&gt;Adapter&lt;/div&gt;&lt;/div&gt;" style="rounded=1;whiteSpace=wrap;html=1;" parent="1" vertex="1">
          <mxGeometry x="80" y="370" width="120" height="100" as="geometry" />
        </mxCell>
        <mxCell id="pyAssOhsW1V1CbU0fwzd-14" value="Apache&lt;div&gt;Cassandra&lt;div&gt;Adapter&lt;/div&gt;&lt;/div&gt;" style="rounded=1;whiteSpace=wrap;html=1;align=center;" parent="1" vertex="1">
          <mxGeometry x="640" y="370" width="120" height="100" as="geometry" />
        </mxCell>
        <mxCell id="pyAssOhsW1V1CbU0fwzd-24" value="" style="endArrow=open;endSize=12;dashed=1;html=1;rounded=0;entryX=0.5;entryY=1;entryDx=0;entryDy=0;" parent="1" target="pyAssOhsW1V1CbU0fwzd-7" edge="1">
          <mxGeometry width="160" relative="1" as="geometry">
            <mxPoint x="420" y="390" as="sourcePoint" />
            <mxPoint x="430" y="460" as="targetPoint" />
          </mxGeometry>
        </mxCell>
        <mxCell id="pyAssOhsW1V1CbU0fwzd-32" value="Apache Kafka&lt;div&gt;Port i.e. interface&lt;/div&gt;&lt;div&gt;implemented by&lt;/div&gt;&lt;div&gt;Apache Kafka&lt;/div&gt;&lt;div&gt;Adapter.&lt;/div&gt;" style="rounded=1;whiteSpace=wrap;html=1;" parent="1" vertex="1">
          <mxGeometry x="80" y="220" width="120" height="100" as="geometry" />
        </mxCell>
        <mxCell id="pyAssOhsW1V1CbU0fwzd-34" value="Apache Cassandra&lt;div&gt;Port i.e. interface&lt;/div&gt;&lt;div&gt;implemented by&lt;/div&gt;&lt;div&gt;Apache&amp;nbsp;&lt;span style=&quot;background-color: transparent; color: light-dark(rgb(0, 0, 0), rgb(255, 255, 255));&quot;&gt;Cassandra&lt;/span&gt;&lt;/div&gt;&lt;div&gt;Adapter.&lt;/div&gt;" style="rounded=1;whiteSpace=wrap;html=1;" parent="1" vertex="1">
          <mxGeometry x="640" y="220" width="120" height="100" as="geometry" />
        </mxCell>
        <mxCell id="8KqJqRGhJ7fPtyRRQ90N-1" value="" style="rounded=0;whiteSpace=wrap;html=1;" parent="1" vertex="1">
          <mxGeometry x="650" y="395" width="10" height="50" as="geometry" />
        </mxCell>
        <mxCell id="8KqJqRGhJ7fPtyRRQ90N-2" value="" style="rounded=0;whiteSpace=wrap;html=1;" parent="1" vertex="1">
          <mxGeometry x="180" y="395" width="10" height="50" as="geometry" />
        </mxCell>
        <mxCell id="8KqJqRGhJ7fPtyRRQ90N-3" value="Mapping between message broker events and domain model." style="rounded=1;whiteSpace=wrap;html=1;" parent="1" vertex="1">
          <mxGeometry x="80" y="520" width="120" height="80" as="geometry" />
        </mxCell>
        <mxCell id="8KqJqRGhJ7fPtyRRQ90N-4" value="" style="endArrow=classic;html=1;rounded=0;exitX=0.667;exitY=0;exitDx=0;exitDy=0;entryX=0.25;entryY=1;entryDx=0;entryDy=0;exitPerimeter=0;" parent="1" source="8KqJqRGhJ7fPtyRRQ90N-3" target="8KqJqRGhJ7fPtyRRQ90N-2" edge="1">
          <mxGeometry width="50" height="50" relative="1" as="geometry">
            <mxPoint x="204" y="324" as="sourcePoint" />
            <mxPoint x="276" y="399" as="targetPoint" />
          </mxGeometry>
        </mxCell>
        <mxCell id="8KqJqRGhJ7fPtyRRQ90N-5" value="Mapping between Cassandra entities and domain model." style="rounded=1;whiteSpace=wrap;html=1;" parent="1" vertex="1">
          <mxGeometry x="640" y="520" width="120" height="80" as="geometry" />
        </mxCell>
        <mxCell id="8KqJqRGhJ7fPtyRRQ90N-6" value="" style="endArrow=classic;html=1;rounded=0;entryX=0.75;entryY=1;entryDx=0;entryDy=0;" parent="1" target="8KqJqRGhJ7fPtyRRQ90N-1" edge="1">
          <mxGeometry width="50" height="50" relative="1" as="geometry">
            <mxPoint x="680" y="520" as="sourcePoint" />
            <mxPoint x="193" y="455" as="targetPoint" />
          </mxGeometry>
        </mxCell>
        <mxCell id="A3nlizhOWq-koxorLVzP-7" value="" style="endArrow=block;dashed=1;endFill=0;endSize=12;html=1;rounded=0;entryX=1;entryY=0.5;entryDx=0;entryDy=0;exitX=0;exitY=0.5;exitDx=0;exitDy=0;" parent="1" source="pyAssOhsW1V1CbU0fwzd-6" target="pyAssOhsW1V1CbU0fwzd-8" edge="1">
          <mxGeometry width="160" relative="1" as="geometry">
            <mxPoint x="210" y="430" as="sourcePoint" />
            <mxPoint x="280" y="430" as="targetPoint" />
          </mxGeometry>
        </mxCell>
        <mxCell id="A3nlizhOWq-koxorLVzP-8" value="" style="endArrow=block;dashed=1;endFill=0;endSize=12;html=1;rounded=0;entryX=0;entryY=0.5;entryDx=0;entryDy=0;exitX=1;exitY=0.5;exitDx=0;exitDy=0;" parent="1" source="pyAssOhsW1V1CbU0fwzd-6" target="pyAssOhsW1V1CbU0fwzd-11" edge="1">
          <mxGeometry width="160" relative="1" as="geometry">
            <mxPoint x="650" y="430" as="sourcePoint" />
            <mxPoint x="580" y="430" as="targetPoint" />
          </mxGeometry>
        </mxCell>
        <mxCell id="A3nlizhOWq-koxorLVzP-12" value="" style="endArrow=classic;html=1;rounded=0;exitX=0.962;exitY=0.957;exitDx=0;exitDy=0;entryX=-0.15;entryY=0.15;entryDx=0;entryDy=0;entryPerimeter=0;exitPerimeter=0;" parent="1" source="pyAssOhsW1V1CbU0fwzd-32" target="pyAssOhsW1V1CbU0fwzd-8" edge="1">
          <mxGeometry width="50" height="50" relative="1" as="geometry">
            <mxPoint x="400" y="470" as="sourcePoint" />
            <mxPoint x="450" y="420" as="targetPoint" />
          </mxGeometry>
        </mxCell>
        <mxCell id="A3nlizhOWq-koxorLVzP-13" value="" style="endArrow=classic;html=1;rounded=0;exitX=0.031;exitY=0.936;exitDx=0;exitDy=0;entryX=1.1;entryY=0.125;entryDx=0;entryDy=0;entryPerimeter=0;exitPerimeter=0;" parent="1" source="pyAssOhsW1V1CbU0fwzd-34" target="pyAssOhsW1V1CbU0fwzd-11" edge="1">
          <mxGeometry width="50" height="50" relative="1" as="geometry">
            <mxPoint x="620" y="310" as="sourcePoint" />
            <mxPoint x="610" y="370" as="targetPoint" />
          </mxGeometry>
        </mxCell>
      </root>
    </mxGraphModel>
  </diagram>
</mxfile>
